<mxfile host="65bd71144e">
    <diagram id="Dn7HPWX0yTSm_59lOzHJ" name="Page-1">
        <mxGraphModel dx="650" dy="647" grid="1" gridSize="10" guides="1" tooltips="1" connect="1" arrows="1" fold="1" page="1" pageScale="1" pageWidth="827" pageHeight="1169" math="0" shadow="0">
            <root>
                <mxCell id="0"/>
                <mxCell id="1" parent="0"/>
                <mxCell id="4" value="" style="edgeStyle=none;html=1;align=left;movable=0;resizable=0;rotatable=0;deletable=0;editable=0;connectable=0;" edge="1" parent="1" target="3">
                    <mxGeometry relative="1" as="geometry">
                        <mxPoint x="350" y="265" as="sourcePoint"/>
                    </mxGeometry>
                </mxCell>
                <mxCell id="3" value="Compiled language, complies directly into machine code" style="whiteSpace=wrap;html=1;align=left;movable=0;resizable=0;rotatable=0;deletable=0;editable=0;connectable=0;" vertex="1" parent="1">
                    <mxGeometry x="400" y="235" width="120" height="60" as="geometry"/>
                </mxCell>
                <mxCell id="7" value="" style="edgeStyle=none;html=1;align=left;movable=0;resizable=0;rotatable=0;deletable=0;editable=0;connectable=0;" edge="1" parent="1" source="5" target="6">
                    <mxGeometry relative="1" as="geometry">
                        <Array as="points">
                            <mxPoint x="305" y="370"/>
                        </Array>
                    </mxGeometry>
                </mxCell>
                <mxCell id="15" style="edgeStyle=none;html=1;exitX=0.5;exitY=0;exitDx=0;exitDy=0;entryX=0;entryY=0.5;entryDx=0;entryDy=0;align=left;movable=0;resizable=0;rotatable=0;deletable=0;editable=0;connectable=0;" edge="1" parent="1" source="5" target="10">
                    <mxGeometry relative="1" as="geometry">
                        <Array as="points">
                            <mxPoint x="300" y="74"/>
                        </Array>
                    </mxGeometry>
                </mxCell>
                <mxCell id="16" style="edgeStyle=none;html=1;exitX=1;exitY=0;exitDx=0;exitDy=0;entryX=0;entryY=0.5;entryDx=0;entryDy=0;align=left;movable=0;resizable=0;rotatable=0;deletable=0;editable=0;connectable=0;" edge="1" parent="1" source="5" target="18">
                    <mxGeometry relative="1" as="geometry">
                        <mxPoint x="380" y="200" as="targetPoint"/>
                        <Array as="points">
                            <mxPoint x="330" y="190"/>
                        </Array>
                    </mxGeometry>
                </mxCell>
                <mxCell id="20" value="" style="edgeStyle=none;html=1;align=left;movable=0;resizable=0;rotatable=0;deletable=0;editable=0;connectable=0;" edge="1" parent="1" source="5" target="19">
                    <mxGeometry relative="1" as="geometry">
                        <Array as="points">
                            <mxPoint x="305" y="480"/>
                        </Array>
                    </mxGeometry>
                </mxCell>
                <mxCell id="22" value="" style="edgeStyle=none;html=1;align=left;movable=0;resizable=0;rotatable=0;deletable=0;editable=0;connectable=0;" edge="1" parent="1" source="5" target="21">
                    <mxGeometry relative="1" as="geometry">
                        <Array as="points">
                            <mxPoint x="305" y="600"/>
                        </Array>
                    </mxGeometry>
                </mxCell>
                <mxCell id="38" value="" style="edgeStyle=none;html=1;align=left;movable=0;resizable=0;rotatable=0;deletable=0;editable=0;connectable=0;" edge="1" parent="1" source="5" target="37">
                    <mxGeometry relative="1" as="geometry"/>
                </mxCell>
                <mxCell id="50" value="" style="edgeStyle=none;html=1;fontSize=14;" edge="1" parent="1" source="5" target="49">
                    <mxGeometry relative="1" as="geometry">
                        <Array as="points">
                            <mxPoint x="300" y="140"/>
                        </Array>
                    </mxGeometry>
                </mxCell>
                <mxCell id="5" value="Go" style="ellipse;whiteSpace=wrap;html=1;align=left;movable=1;resizable=1;rotatable=1;deletable=1;editable=1;connectable=1;" vertex="1" parent="1">
                    <mxGeometry x="260" y="240" width="90" height="65" as="geometry"/>
                </mxCell>
                <mxCell id="9" value="" style="edgeStyle=none;html=1;align=left;movable=0;resizable=0;rotatable=0;deletable=0;editable=0;connectable=0;" edge="1" parent="1" source="6" target="8">
                    <mxGeometry relative="1" as="geometry"/>
                </mxCell>
                <mxCell id="6" value="Execution Speed is similar to VM languages like Java, C#." style="whiteSpace=wrap;html=1;align=left;movable=0;resizable=0;rotatable=0;deletable=0;editable=0;connectable=0;" vertex="1" parent="1">
                    <mxGeometry x="400" y="340" width="120" height="60" as="geometry"/>
                </mxCell>
                <mxCell id="8" value="Execution speed is the number of computations done per second" style="whiteSpace=wrap;html=1;align=left;movable=0;resizable=0;rotatable=0;deletable=0;editable=0;connectable=0;" vertex="1" parent="1">
                    <mxGeometry x="560" y="340" width="120" height="60" as="geometry"/>
                </mxCell>
                <mxCell id="10" value="GoRuntime: chunk of code included in every Go code for memory cleanup --&amp;gt; slows down execution compared to the other compiled languages.&amp;nbsp;" style="whiteSpace=wrap;html=1;align=left;movable=0;resizable=0;rotatable=0;deletable=0;editable=0;connectable=0;" vertex="1" parent="1">
                    <mxGeometry x="400" y="20" width="120" height="107.5" as="geometry"/>
                </mxCell>
                <mxCell id="18" value="No Try Catch/Except" style="whiteSpace=wrap;html=1;align=left;movable=0;resizable=0;rotatable=0;deletable=0;editable=0;connectable=0;" vertex="1" parent="1">
                    <mxGeometry x="400" y="170" width="120" height="40" as="geometry"/>
                </mxCell>
                <mxCell id="19" value="Lexer: adds semi-colon and handles many things" style="whiteSpace=wrap;html=1;align=left;movable=0;resizable=0;rotatable=0;deletable=0;editable=0;connectable=0;" vertex="1" parent="1">
                    <mxGeometry x="400" y="440" width="120" height="77.5" as="geometry"/>
                </mxCell>
                <mxCell id="24" value="" style="edgeStyle=none;html=1;entryX=0;entryY=0.5;entryDx=0;entryDy=0;align=left;movable=0;resizable=0;rotatable=0;deletable=0;editable=0;connectable=0;" edge="1" parent="1" source="21" target="23">
                    <mxGeometry relative="1" as="geometry">
                        <Array as="points">
                            <mxPoint x="550" y="550"/>
                        </Array>
                    </mxGeometry>
                </mxCell>
                <mxCell id="21" value="First go program" style="whiteSpace=wrap;html=1;align=left;movable=0;resizable=0;rotatable=0;deletable=0;editable=0;connectable=0;" vertex="1" parent="1">
                    <mxGeometry x="400" y="570" width="120" height="60" as="geometry"/>
                </mxCell>
                <mxCell id="26" value="" style="edgeStyle=none;html=1;align=left;movable=0;resizable=0;rotatable=0;deletable=0;editable=0;connectable=0;" edge="1" parent="1" source="23" target="25">
                    <mxGeometry relative="1" as="geometry"/>
                </mxCell>
                <mxCell id="23" value="Create a folder, let's name it hello_world" style="whiteSpace=wrap;html=1;align=left;movable=0;resizable=0;rotatable=0;deletable=0;editable=0;connectable=0;" vertex="1" parent="1">
                    <mxGeometry x="590" y="510" width="120" height="60" as="geometry"/>
                </mxCell>
                <mxCell id="28" value="" style="edgeStyle=none;html=1;align=left;movable=0;resizable=0;rotatable=0;deletable=0;editable=0;connectable=0;" edge="1" parent="1" source="25" target="27">
                    <mxGeometry relative="1" as="geometry"/>
                </mxCell>
                <mxCell id="25" value="move inside this folder or be outside, in the parent folder" style="whiteSpace=wrap;html=1;align=left;movable=0;resizable=0;rotatable=0;deletable=0;editable=0;connectable=0;" vertex="1" parent="1">
                    <mxGeometry x="590" y="610" width="120" height="60" as="geometry"/>
                </mxCell>
                <mxCell id="30" value="" style="edgeStyle=none;html=1;align=left;movable=0;resizable=0;rotatable=0;deletable=0;editable=0;connectable=0;" edge="1" parent="1" source="27" target="29">
                    <mxGeometry relative="1" as="geometry"/>
                </mxCell>
                <mxCell id="32" value="" style="edgeStyle=none;html=1;align=left;movable=0;resizable=0;rotatable=0;deletable=0;editable=0;connectable=0;" edge="1" parent="1" source="27">
                    <mxGeometry relative="1" as="geometry">
                        <mxPoint x="770" y="730" as="targetPoint"/>
                    </mxGeometry>
                </mxCell>
                <mxCell id="27" value="run go mod init or go mod project_name" style="whiteSpace=wrap;html=1;align=left;movable=0;resizable=0;rotatable=0;deletable=0;editable=0;connectable=0;" vertex="1" parent="1">
                    <mxGeometry x="590" y="700" width="120" height="60" as="geometry"/>
                </mxCell>
                <mxCell id="29" value="Create a main.go file and start programming in Go" style="whiteSpace=wrap;html=1;align=left;movable=0;resizable=0;rotatable=0;deletable=0;editable=0;connectable=0;" vertex="1" parent="1">
                    <mxGeometry x="590" y="790" width="120" height="60" as="geometry"/>
                </mxCell>
                <mxCell id="35" value="Creates a go.mod file which is required for dependency tracking(modules imported dependency)" style="whiteSpace=wrap;html=1;align=left;movable=0;resizable=0;rotatable=0;deletable=0;editable=0;connectable=0;" vertex="1" parent="1">
                    <mxGeometry x="770" y="670" width="120" height="90" as="geometry"/>
                </mxCell>
                <mxCell id="43" value="" style="edgeStyle=none;html=1;fontSize=14;align=left;entryX=0;entryY=0.5;entryDx=0;entryDy=0;movable=0;resizable=0;rotatable=0;deletable=0;editable=0;connectable=0;" edge="1" parent="1" target="42">
                    <mxGeometry relative="1" as="geometry">
                        <mxPoint x="340" y="750" as="sourcePoint"/>
                        <mxPoint x="350" y="810" as="targetPoint"/>
                        <Array as="points">
                            <mxPoint x="340" y="820"/>
                        </Array>
                    </mxGeometry>
                </mxCell>
                <mxCell id="45" value="" style="edgeStyle=none;html=1;fontSize=14;movable=0;resizable=0;rotatable=0;deletable=0;editable=0;connectable=0;" edge="1" parent="1" source="37" target="40">
                    <mxGeometry relative="1" as="geometry">
                        <Array as="points">
                            <mxPoint x="310" y="1000"/>
                        </Array>
                    </mxGeometry>
                </mxCell>
                <mxCell id="47" value="" style="edgeStyle=none;html=1;fontSize=14;movable=0;resizable=0;rotatable=0;deletable=0;editable=0;connectable=0;" edge="1" parent="1" source="37" target="46">
                    <mxGeometry relative="1" as="geometry">
                        <Array as="points">
                            <mxPoint x="310" y="1150"/>
                        </Array>
                    </mxGeometry>
                </mxCell>
                <mxCell id="37" value="Types" style="whiteSpace=wrap;html=1;align=left;movable=0;resizable=0;rotatable=0;deletable=0;editable=0;connectable=0;" vertex="1" parent="1">
                    <mxGeometry x="245" y="690" width="120" height="60" as="geometry"/>
                </mxCell>
                <mxCell id="40" value="Everything is a type:&lt;br&gt;1. First Capital letter means, it is public accessible&lt;br&gt;2. first small letter of any method or variable means it is privately declared&lt;br&gt;3. every variable needs to be specifically declared" style="text;html=1;strokeColor=none;fillColor=none;align=left;verticalAlign=middle;whiteSpace=wrap;rounded=0;movable=0;resizable=0;rotatable=0;deletable=0;editable=0;connectable=0;" vertex="1" parent="1">
                    <mxGeometry x="410" y="930" width="160" height="140" as="geometry"/>
                </mxCell>
                <mxCell id="42" value="Basic Types:&lt;br&gt;1. String&lt;br&gt;2. integer; uint8, uint64, int8, int64, uintptr&lt;br&gt;3. Boolean&lt;br&gt;4. float: float32, float64&lt;br&gt;5. Complex" style="whiteSpace=wrap;html=1;align=left;movable=0;resizable=0;rotatable=0;deletable=0;editable=0;connectable=0;" vertex="1" parent="1">
                    <mxGeometry x="400" y="760" width="160" height="120" as="geometry"/>
                </mxCell>
                <mxCell id="46" value="Advanced Types:&lt;br&gt;1. Maps&lt;br&gt;2. Slices&lt;br&gt;3. Arrays&lt;br&gt;4. Functions&lt;br&gt;5. Channels&lt;br&gt;6. Structs&lt;br&gt;7. Pointers" style="whiteSpace=wrap;html=1;align=left;movable=0;resizable=0;rotatable=0;deletable=0;editable=0;connectable=0;" vertex="1" parent="1">
                    <mxGeometry x="414" y="1070" width="120" height="150" as="geometry"/>
                </mxCell>
                <mxCell id="49" value="Pointers: signifies exact memory location/address of the variable is passed on, not a copy of the variable." style="whiteSpace=wrap;html=1;align=left;" vertex="1" parent="1">
                    <mxGeometry x="550" y="90" width="120" height="90" as="geometry"/>
                </mxCell>
            </root>
        </mxGraphModel>
    </diagram>
</mxfile>